<svg viewBox="0 0 48 11" fill="none" xmlns="http://www.w3.org/2000/svg">
<g clip-path="url(#clip0_981_16190)">
<mask id="mask0_981_16190" style="mask-type:luminance" maskUnits="userSpaceOnUse" x="0" y="0" width="48" height="11">
<path d="M47.4 0H0V10.32H47.4V0Z" fill="white"></path>
</mask>
<g mask="url(#mask0_981_16190)">
<path d="M19.9903 7.76957H15.9103L21.1003 1.06957C21.2603 0.84957 21.1003 0.52957 20.8403 0.52957H13.3203C12.6703 0.52957 12.1203 1.06957 12.1203 1.69957C12.1203 2.32957 12.6703 2.86957 13.3203 2.86957H16.7203L11.5003 9.56957C11.3403 9.78957 11.5003 10.1096 11.7903 10.1096H19.9903C20.6403 10.1096 21.1903 9.56957 21.1903 8.93957C21.1903 8.30957 20.6403 7.76957 19.9903 7.76957ZM46.2103 0.52957C45.5603 0.52957 45.0103 1.06957 45.0103 1.69957V5.61957L38.5303 0.59957C38.3003 0.40957 37.9803 0.56957 37.9803 0.84957V8.90957C37.9803 9.53957 38.5303 10.0796 39.1803 10.0796C39.8303 10.0796 40.3803 9.53957 40.3803 8.90957V5.01957L46.8603 10.0396C47.0903 10.2296 47.4103 10.0696 47.4103 9.78957V1.69957C47.4103 1.06957 46.8603 0.52957 46.2103 0.52957ZM29.0703 7.98957C26.3203 7.98957 24.2703 6.56957 24.2703 5.33957C24.2703 4.10957 26.3103 2.68957 29.0703 2.68957C31.8303 2.68957 33.8703 4.10957 33.8703 5.33957C33.8703 6.56957 31.8003 7.98957 29.0703 7.98957ZM29.0703 0.30957C25.0803 0.30957 21.8803 2.54957 21.8803 5.29957C21.8803 8.04957 25.0903 10.2896 29.0703 10.2896C33.0503 10.2896 36.2603 8.04957 36.2603 5.29957C36.2603 2.54957 33.0203 0.30957 29.0603 0.30957M5.44031 7.98957C3.92031 7.98957 2.69031 6.78957 2.69031 5.29957C2.69031 3.80957 3.92031 2.60957 5.44031 2.60957C6.96031 2.60957 8.19031 3.80957 8.19031 5.29957C8.19031 6.78957 6.96031 7.98957 5.44031 7.98957ZM5.44031 0.30957C2.62031 0.30957 0.320312 2.54957 0.320312 5.29957C0.320312 8.04957 2.62031 10.2896 5.44031 10.2896C8.26031 10.2896 10.5603 8.04957 10.5603 5.29957C10.5603 2.54957 8.29031 0.30957 5.44031 0.30957Z" fill="#005BFF"></path>
</g>
</g>
<defs>
<clipPath id="clip0_981_16190">
<rect width="47.4" height="10.32" fill="white"></rect>
</clipPath>
</defs>
</svg>
