<svg viewBox="0 0 43 24" fill="none" xmlns="http://www.w3.org/2000/svg">
<g clip-path="url(#clip0_411_8243)">
<path d="M34.1843 20.2253C36.795 20.2253 39.0598 18.2122 39.0598 15.5071C39.0598 12.9278 36.9837 10.8833 34.373 10.8833C31.5421 10.8833 29.4975 12.9278 29.4975 15.5071C29.4975 18.2122 31.7308 20.2253 34.1843 20.2253ZM25.7544 15.5071V0.157227H29.4975V8.61854C30.9759 7.70636 32.4857 7.10872 34.373 7.10872C39.0598 7.10872 42.7714 10.8833 42.7714 15.5071C42.7714 20.2253 38.871 23.9684 34.1843 23.9684C29.6548 23.9684 25.7544 20.2253 25.7544 15.5071Z" fill="black"></path>
<path d="M20.4456 7.70654H24.5661L18.5583 23.4339H15.9475L12.2044 14.0603L8.61859 23.4339H6.0393L0 7.70654H3.93184L7.51767 16.6396L10.9148 7.70654H13.4941L17.0799 16.6396L20.4456 7.70654Z" fill="black"></path>
</g>
<defs>
<clipPath id="clip0_411_8243">
<rect width="43" height="24" fill="white"></rect>
</clipPath>
</defs>
</svg>
